<svg xmlns="http://www.w3.org/2000/svg" viewBox="0 0 127.29 131.83"><defs><style>.cls-1{opacity:0.9;}.cls-2,.cls-80{fill:#fff;}.cls-10,.cls-11,.cls-12,.cls-13,.cls-14,.cls-15,.cls-16,.cls-17,.cls-18,.cls-19,.cls-2,.cls-20,.cls-21,.cls-22,.cls-23,.cls-24,.cls-25,.cls-26,.cls-27,.cls-28,.cls-29,.cls-3,.cls-30,.cls-31,.cls-32,.cls-33,.cls-34,.cls-35,.cls-36,.cls-37,.cls-38,.cls-39,.cls-4,.cls-40,.cls-41,.cls-42,.cls-43,.cls-44,.cls-45,.cls-46,.cls-47,.cls-48,.cls-49,.cls-5,.cls-50,.cls-51,.cls-52,.cls-53,.cls-54,.cls-55,.cls-56,.cls-57,.cls-58,.cls-59,.cls-6,.cls-60,.cls-61,.cls-62,.cls-63,.cls-64,.cls-65,.cls-66,.cls-67,.cls-68,.cls-69,.cls-7,.cls-70,.cls-71,.cls-72,.cls-73,.cls-74,.cls-75,.cls-76,.cls-77,.cls-78,.cls-79,.cls-8,.cls-9{fill-rule:evenodd;}.cls-3{fill:#fefefe;}.cls-4{fill:#fdfdfd;}.cls-5{fill:#fcfcfc;}.cls-6{fill:#fbfbfb;}.cls-7{fill:#fafafa;}.cls-8{fill:#f9f9f9;}.cls-9{fill:#f8f8f8;}.cls-10{fill:#f7f7f7;}.cls-11{fill:#f6f6f6;}.cls-12{fill:#f5f5f5;}.cls-13{fill:#f4f4f4;}.cls-14{fill:#f3f3f3;}.cls-15{fill:#f2f2f2;}.cls-16{fill:#f1f1f1;}.cls-17{fill:#f0f0f0;}.cls-18{fill:#efefef;}.cls-19{fill:#eee;}.cls-20{fill:#ededed;}.cls-21{fill:#ececec;}.cls-22{fill:#ebebeb;}.cls-23{fill:#eaeaea;}.cls-24{fill:#e9e9e9;}.cls-25{fill:#e8e8e8;}.cls-26{fill:#e7e7e7;}.cls-27{fill:#e6e6e6;}.cls-28{fill:#e5e5e5;}.cls-29{fill:#e4e4e4;}.cls-30{fill:#e3e3e3;}.cls-31{fill:#e2e2e2;}.cls-32{fill:#e1e1e1;}.cls-33{fill:#e0e0e0;}.cls-34{fill:#dfdfdf;}.cls-35{fill:#dedede;}.cls-36{fill:#ddd;}.cls-37{fill:#dcdcdc;}.cls-38{fill:#dbdbdb;}.cls-39{fill:#dadada;}.cls-40{fill:#d9d9d9;}.cls-41{fill:#d8d8d8;}.cls-42{fill:#d7d7d7;}.cls-43{fill:#d6d6d6;}.cls-44{fill:#d5d5d5;}.cls-45{fill:#d4d4d4;}.cls-46{fill:#d3d3d3;}.cls-47{fill:#d2d2d2;}.cls-48{fill:#d1d1d1;}.cls-49{fill:#d0d0d0;}.cls-50{fill:#cfcfcf;}.cls-51{fill:#cecece;}.cls-52{fill:#cdcdcd;}.cls-53{fill:#ccc;}.cls-54{fill:#cbcbcb;}.cls-55{fill:#cacaca;}.cls-56{fill:#c9c9c9;}.cls-57{fill:#c8c8c8;}.cls-58{fill:#c7c7c7;}.cls-59{fill:#c6c6c6;}.cls-60{fill:#c5c5c5;}.cls-61{fill:#c4c4c4;}.cls-62{fill:#c3c3c3;}.cls-63{fill:#c2c2c2;}.cls-64{fill:#c1c1c1;}.cls-65{fill:silver;}.cls-66{fill:#bfbfbf;}.cls-67{fill:#bebebe;}.cls-68{fill:#bdbdbd;}.cls-69{fill:#bcbcbc;}.cls-70{fill:#bbb;}.cls-71{fill:#bababa;}.cls-72{fill:#b9b9b9;}.cls-73{fill:#b8b8b8;}.cls-74{fill:#b7b7b7;}.cls-75{fill:#b6b6b6;}.cls-76{fill:#b5b5b5;}.cls-77{fill:#b4b4b4;}.cls-78{fill:#b3b3b3;}.cls-79{fill:red;}</style></defs><title>Asset 3</title><g id="Layer_2" data-name="Layer 2"><g id="_18" data-name="18"><g class="cls-1"><path class="cls-2" d="M61.64,131.83c-27.24,0-49.34-2.08-49.34-4.64s22.1-4.64,49.34-4.64S111,124.63,111,127.19s-22.09,4.64-49.34,4.64Z"/><path class="cls-3" d="M61.64,131.78c-27,0-48.87-2.05-48.87-4.59s21.89-4.59,48.87-4.59,48.87,2.06,48.87,4.59-21.88,4.59-48.87,4.59Z"/><path class="cls-4" d="M61.65,131.72c-26.72,0-48.4-2-48.4-4.54s21.68-4.54,48.4-4.54,48.4,2,48.4,4.54-21.67,4.54-48.4,4.54Z"/><path class="cls-5" d="M61.65,131.67c-26.46,0-47.93-2-47.93-4.5s21.47-4.49,47.93-4.49,47.93,2,47.93,4.49-21.46,4.5-47.93,4.5Z"/><path class="cls-6" d="M61.66,131.61c-26.21,0-47.46-2-47.46-4.45s21.26-4.44,47.46-4.44,47.46,2,47.46,4.44-21.25,4.45-47.46,4.45Z"/><path class="cls-7" d="M61.67,131.55c-25.95,0-47-2-47-4.4s21-4.4,47-4.4,47,2,47,4.4-21,4.4-47,4.4Z"/><path class="cls-8" d="M61.67,131.5c-25.69,0-46.52-1.95-46.52-4.35S36,122.8,61.67,122.8s46.52,1.95,46.52,4.35-20.83,4.35-46.52,4.35Z"/><path class="cls-9" d="M61.68,131.44c-25.43,0-46.05-1.93-46.05-4.3s20.63-4.3,46.05-4.3,46.05,1.93,46.05,4.3-20.62,4.3-46.05,4.3Z"/><path class="cls-10" d="M61.69,131.39c-25.17,0-45.59-1.9-45.59-4.25s20.42-4.25,45.59-4.25,45.58,1.9,45.58,4.25-20.41,4.25-45.58,4.25Z"/><path class="cls-11" d="M61.69,131.33c-24.91,0-45.12-1.88-45.12-4.21s20.21-4.2,45.12-4.2,45.11,1.88,45.11,4.2-20.2,4.21-45.11,4.21Z"/><path class="cls-12" d="M61.7,131.28c-24.65,0-44.65-1.86-44.65-4.16S37,123,61.7,123s44.64,1.86,44.64,4.15-20,4.16-44.64,4.16Z"/><path class="cls-13" d="M61.7,131.22c-24.39,0-44.18-1.84-44.18-4.11S37.31,123,61.7,123s44.17,1.84,44.17,4.11-19.78,4.11-44.17,4.11Z"/><path class="cls-14" d="M61.71,131.17c-24.13,0-43.71-1.82-43.71-4.06s19.58-4.06,43.71-4.06,43.7,1.82,43.7,4.06-19.57,4.06-43.7,4.06Z"/><path class="cls-15" d="M61.72,131.11c-23.87,0-43.24-1.8-43.24-4s19.37-4,43.24-4,43.23,1.8,43.23,4-19.36,4-43.23,4Z"/><path class="cls-16" d="M61.72,131.06c-23.61,0-42.77-1.77-42.77-4s19.16-4,42.77-4,42.76,1.78,42.76,4-19.15,4-42.76,4Z"/><path class="cls-17" d="M61.73,131c-23.35,0-42.3-1.75-42.3-3.91s18.94-3.91,42.3-3.91S104,124.93,104,127.09,85.08,131,61.73,131Z"/><path class="cls-18" d="M61.73,130.95c-23.09,0-41.83-1.73-41.83-3.87s18.73-3.86,41.83-3.86,41.82,1.73,41.82,3.86-18.73,3.87-41.82,3.87Z"/><path class="cls-19" d="M61.74,130.89c-22.83,0-41.36-1.71-41.36-3.81s18.52-3.82,41.36-3.82,41.35,1.71,41.35,3.82-18.52,3.81-41.35,3.81Z"/><path class="cls-20" d="M61.75,130.84c-22.57,0-40.89-1.69-40.89-3.77s18.31-3.77,40.89-3.77,40.88,1.69,40.88,3.77-18.31,3.77-40.88,3.77Z"/><path class="cls-21" d="M61.75,130.78c-22.31,0-40.42-1.67-40.42-3.72s18.1-3.72,40.42-3.72,40.41,1.67,40.41,3.72-18.1,3.72-40.41,3.72Z"/><path class="cls-22" d="M61.76,130.72c-22.06,0-39.95-1.64-39.95-3.67s17.89-3.67,39.95-3.67,39.94,1.64,39.94,3.67-17.89,3.67-39.94,3.67Z"/><path class="cls-23" d="M61.77,130.67C40,130.67,22.29,129,22.29,127s17.68-3.62,39.48-3.62S101.24,125,101.24,127s-17.68,3.62-39.47,3.62Z"/><path class="cls-24" d="M61.77,130.62c-21.54,0-39-1.6-39-3.57s17.47-3.57,39-3.57,39,1.6,39,3.57-17.47,3.57-39,3.57Z"/><path class="cls-25" d="M61.78,130.56c-21.28,0-38.54-1.58-38.54-3.52s17.26-3.53,38.54-3.53,38.54,1.58,38.54,3.53-17.26,3.52-38.54,3.52Z"/><path class="cls-26" d="M61.78,130.5c-21,0-38.07-1.56-38.07-3.48s17.05-3.47,38.07-3.47,38.07,1.56,38.07,3.47-17,3.48-38.07,3.48Z"/><path class="cls-27" d="M61.79,130.45c-20.76,0-37.6-1.54-37.6-3.43s16.84-3.43,37.6-3.43,37.6,1.54,37.6,3.43-16.84,3.43-37.6,3.43Z"/><path class="cls-28" d="M61.8,130.39c-20.5,0-37.13-1.51-37.13-3.38s16.63-3.38,37.13-3.38,37.13,1.51,37.13,3.38-16.63,3.38-37.13,3.38Z"/><path class="cls-29" d="M61.8,130.34c-20.24,0-36.66-1.49-36.66-3.33s16.42-3.33,36.66-3.33,36.66,1.49,36.66,3.33S82,130.34,61.8,130.34Z"/><path class="cls-30" d="M61.81,130.28c-20,0-36.19-1.47-36.19-3.28s16.21-3.28,36.19-3.28S98,125.19,98,127s-16.21,3.28-36.19,3.28Z"/><path class="cls-31" d="M61.82,130.23c-19.72,0-35.72-1.45-35.72-3.23s16-3.23,35.72-3.23,35.72,1.45,35.72,3.23-16,3.23-35.72,3.23Z"/><path class="cls-32" d="M61.82,130.17c-19.46,0-35.25-1.43-35.25-3.19s15.79-3.18,35.25-3.18,35.25,1.43,35.25,3.18-15.78,3.19-35.25,3.19Z"/><path class="cls-33" d="M61.83,130.12c-19.2,0-34.78-1.4-34.78-3.14s15.58-3.14,34.78-3.14S96.6,125.25,96.6,127,81,130.12,61.83,130.12Z"/><path class="cls-34" d="M61.83,130.06c-18.94,0-34.31-1.38-34.31-3.09s15.37-3.09,34.31-3.09,34.31,1.38,34.31,3.09-15.36,3.09-34.31,3.09Z"/><path class="cls-35" d="M61.84,130C43.16,130,28,128.64,28,127s15.16-3,33.84-3,33.84,1.36,33.84,3-15.15,3-33.84,3Z"/><path class="cls-36" d="M61.85,130c-18.43,0-33.37-1.34-33.37-3s14.95-3,33.37-3,33.37,1.34,33.37,3-14.94,3-33.37,3Z"/><path class="cls-37" d="M61.85,129.9C43.69,129.9,29,128.58,29,127S43.69,124,61.85,124s32.9,1.32,32.9,2.94S80,129.9,61.85,129.9Z"/><path class="cls-38" d="M61.86,129.84c-17.91,0-32.43-1.29-32.43-2.89s14.53-2.89,32.43-2.89,32.43,1.29,32.43,2.89-14.52,2.89-32.43,2.89Z"/><path class="cls-39" d="M61.86,129.79c-17.65,0-32-1.27-32-2.85s14.32-2.85,32-2.85,32,1.28,32,2.85-14.31,2.85-32,2.85Z"/><path class="cls-40" d="M61.87,129.73c-17.39,0-31.49-1.25-31.49-2.8s14.11-2.8,31.49-2.8,31.49,1.25,31.49,2.8-14.1,2.8-31.49,2.8Z"/><path class="cls-40" d="M61.88,129.67c-17.13,0-31-1.23-31-2.75s13.89-2.75,31-2.75,31,1.23,31,2.75-13.89,2.75-31,2.75Z"/><path class="cls-41" d="M61.88,129.62c-16.87,0-30.55-1.21-30.55-2.7s13.68-2.7,30.55-2.7,30.55,1.21,30.55,2.7-13.68,2.7-30.55,2.7Z"/><path class="cls-42" d="M61.89,129.56c-16.61,0-30.08-1.19-30.08-2.65s13.47-2.65,30.08-2.65S92,125.45,92,126.91s-13.47,2.65-30.08,2.65Z"/><path class="cls-43" d="M61.9,129.51c-16.35,0-29.61-1.16-29.61-2.6s13.26-2.6,29.61-2.6,29.61,1.17,29.61,2.6-13.26,2.6-29.61,2.6Z"/><path class="cls-44" d="M61.9,129.45c-16.09,0-29.14-1.14-29.14-2.55s13.05-2.56,29.14-2.56S91,125.49,91,126.9s-13,2.55-29.14,2.55Z"/><path class="cls-45" d="M61.91,129.4c-15.83,0-28.67-1.12-28.67-2.51s12.84-2.51,28.67-2.51,28.67,1.12,28.67,2.51-12.84,2.51-28.67,2.51Z"/><path class="cls-46" d="M61.91,129.34c-15.57,0-28.21-1.1-28.21-2.46s12.63-2.46,28.21-2.46,28.2,1.1,28.2,2.46-12.63,2.46-28.2,2.46Z"/><path class="cls-47" d="M61.92,129.29c-15.31,0-27.73-1.08-27.73-2.41s12.42-2.41,27.73-2.41,27.73,1.08,27.73,2.41-12.42,2.41-27.73,2.41Z"/><path class="cls-48" d="M61.93,129.23c-15.05,0-27.27-1.06-27.27-2.36s12.21-2.36,27.27-2.36,27.26,1.06,27.26,2.36S77,129.23,61.93,129.23Z"/><path class="cls-49" d="M61.93,129.18c-14.79,0-26.79-1-26.79-2.31s12-2.31,26.79-2.31,26.79,1,26.79,2.31-12,2.31-26.79,2.31Z"/><path class="cls-50" d="M61.94,129.12c-14.54,0-26.33-1-26.33-2.26s11.79-2.27,26.33-2.27,26.32,1,26.32,2.27-11.79,2.26-26.32,2.26Z"/><path class="cls-51" d="M61.95,129.07c-14.28,0-25.86-1-25.86-2.21s11.58-2.21,25.86-2.21,25.85,1,25.85,2.21-11.58,2.21-25.85,2.21Z"/><path class="cls-52" d="M62,129c-14,0-25.39-1-25.39-2.17s11.37-2.17,25.39-2.17,25.38,1,25.38,2.17S76,129,62,129Z"/><path class="cls-53" d="M62,129C48.2,129,37,128,37,126.84S48.2,124.72,62,124.72s24.91.95,24.91,2.12S75.71,129,62,129Z"/><path class="cls-54" d="M62,128.9c-13.5,0-24.45-.93-24.45-2.07s10.95-2.07,24.45-2.07,24.44.93,24.44,2.07S75.46,128.9,62,128.9Z"/><path class="cls-55" d="M62,128.85c-13.24,0-24-.9-24-2s10.74-2,24-2,24,.9,24,2-10.74,2-24,2Z"/><path class="cls-56" d="M62,128.79c-13,0-23.51-.88-23.51-2s10.53-2,23.51-2,23.5.88,23.5,2-10.53,2-23.5,2Z"/><path class="cls-57" d="M62,128.73c-12.72,0-23-.86-23-1.92s10.32-1.92,23-1.92,23,.86,23,1.92-10.32,1.92-23,1.92Z"/><path class="cls-58" d="M62,128.68c-12.46,0-22.57-.84-22.57-1.87s10.11-1.88,22.57-1.88,22.56.84,22.56,1.88-10.1,1.88-22.56,1.88Z"/><path class="cls-59" d="M62,128.63c-12.2,0-22.1-.82-22.1-1.83S49.79,125,62,125s22.09.82,22.09,1.83-9.89,1.83-22.09,1.83Z"/><path class="cls-60" d="M62,128.57c-11.94,0-21.63-.79-21.63-1.78S50.06,125,62,125s21.62.79,21.62,1.78-9.68,1.78-21.62,1.78Z"/><path class="cls-61" d="M62,128.51c-11.68,0-21.16-.78-21.16-1.73s9.48-1.73,21.16-1.73,21.15.78,21.15,1.73-9.47,1.73-21.15,1.73Z"/><path class="cls-62" d="M62,128.46c-11.42,0-20.69-.75-20.69-1.68S50.59,125.1,62,125.1s20.68.75,20.68,1.68-9.26,1.68-20.68,1.68Z"/><path class="cls-63" d="M62,128.4c-11.16,0-20.22-.73-20.22-1.63s9.06-1.63,20.22-1.63,20.21.73,20.21,1.63S73.18,128.4,62,128.4Z"/><path class="cls-64" d="M62,128.35c-10.9,0-19.75-.71-19.75-1.58s8.84-1.59,19.75-1.59,19.74.71,19.74,1.59-8.84,1.58-19.74,1.58Z"/><path class="cls-65" d="M62,128.29c-10.64,0-19.28-.69-19.28-1.54s8.63-1.54,19.28-1.54,19.27.69,19.27,1.54-8.63,1.54-19.27,1.54Z"/><path class="cls-66" d="M62,128.24c-10.38,0-18.81-.67-18.81-1.49s8.42-1.49,18.81-1.49,18.8.67,18.8,1.49-8.42,1.49-18.8,1.49Z"/><path class="cls-67" d="M62,128.18c-10.12,0-18.34-.64-18.34-1.44S51.92,125.3,62,125.3s18.33.64,18.33,1.44-8.21,1.44-18.33,1.44Z"/><path class="cls-68" d="M62.05,128.13c-9.87,0-17.87-.62-17.87-1.39s8-1.39,17.87-1.39,17.86.62,17.86,1.39-8,1.39-17.86,1.39Z"/><path class="cls-69" d="M62.06,128.07c-9.61,0-17.4-.6-17.4-1.34s7.79-1.34,17.4-1.34,17.39.6,17.39,1.34-7.79,1.34-17.39,1.34Z"/><path class="cls-70" d="M62.06,128c-9.35,0-16.93-.58-16.93-1.29s7.58-1.29,16.93-1.29S79,126,79,126.72,71.41,128,62.06,128Z"/><path class="cls-71" d="M62.07,128c-9.09,0-16.46-.56-16.46-1.24s7.37-1.25,16.46-1.25,16.46.56,16.46,1.25S71.15,128,62.07,128Z"/><path class="cls-72" d="M62.08,127.91c-8.83,0-16-.54-16-1.2s7.16-1.2,16-1.2,16,.54,16,1.2-7.16,1.2-16,1.2Z"/><path class="cls-73" d="M62.08,127.85c-8.57,0-15.52-.51-15.52-1.15s7-1.15,15.52-1.15,15.52.51,15.52,1.15-7,1.15-15.52,1.15Z"/><path class="cls-74" d="M62.09,127.79c-8.31,0-15.05-.49-15.05-1.1s6.74-1.1,15.05-1.1,15,.49,15,1.1-6.74,1.1-15,1.1Z"/><path class="cls-75" d="M62.09,127.74c-8.05,0-14.58-.47-14.58-1.05s6.53-1.05,14.58-1.05,14.58.47,14.58,1.05-6.53,1.05-14.58,1.05Z"/><path class="cls-76" d="M62.1,127.68c-7.79,0-14.11-.45-14.11-1s6.32-1,14.11-1,14.11.45,14.11,1-6.32,1-14.11,1Z"/><path class="cls-77" d="M62.11,127.63c-7.53,0-13.64-.43-13.64-1s6.11-1,13.64-1,13.64.43,13.64,1-6.11,1-13.64,1Z"/><path class="cls-78" d="M62.11,127.57c-7.27,0-13.17-.41-13.17-.9s5.9-.91,13.17-.91,13.17.4,13.17.91-5.9.9-13.17.9Z"/></g><path class="cls-79" d="M63.64,0A63.65,63.65,0,1,1,0,63.64,63.65,63.65,0,0,1,63.64,0Z"/><path class="cls-80" d="M75.51,72a6.16,6.16,0,0,0-11.8-3.55,5.35,5.35,0,0,0-.44-.8,6.16,6.16,0,0,0-11.75,2.6A6.47,6.47,0,0,0,51.78,72c.69,4.07,7.87,9.59,12.09,14,0,0,0,0,0,0,4.53-5.56,11.21-10,11.62-14ZM99.45,58.91,65.84,30a3.37,3.37,0,0,0-4.39,0L27.84,58.91A3.37,3.37,0,1,0,32.22,64L63.64,37,95.06,64a3.36,3.36,0,0,0,2.19.8,3.36,3.36,0,0,0,2.19-5.91ZM64.74,41.7a1.69,1.69,0,0,0-2.19,0L37.21,63.56a1.63,1.63,0,0,0-.59,1.26v31.6a1.68,1.68,0,0,0,1.69,1.69H89a1.68,1.68,0,0,0,1.67-1.69V64.82a1.67,1.67,0,0,0-.57-1.26Zm22.55,53H40V65.59L63.64,45.2,87.29,65.59Z"/></g></g></svg>