<svg xmlns="http://www.w3.org/2000/svg" viewBox="0 0 127.29 132.84"><defs><style>.cls-1{opacity:0.9;}.cls-2{fill:#fff;}.cls-10,.cls-11,.cls-12,.cls-13,.cls-14,.cls-15,.cls-16,.cls-17,.cls-18,.cls-19,.cls-2,.cls-20,.cls-21,.cls-22,.cls-23,.cls-24,.cls-25,.cls-26,.cls-27,.cls-28,.cls-29,.cls-3,.cls-30,.cls-31,.cls-32,.cls-33,.cls-34,.cls-35,.cls-36,.cls-37,.cls-38,.cls-39,.cls-4,.cls-40,.cls-41,.cls-42,.cls-43,.cls-44,.cls-45,.cls-46,.cls-47,.cls-48,.cls-49,.cls-5,.cls-50,.cls-51,.cls-52,.cls-53,.cls-54,.cls-55,.cls-56,.cls-57,.cls-58,.cls-59,.cls-6,.cls-60,.cls-61,.cls-62,.cls-63,.cls-64,.cls-65,.cls-66,.cls-67,.cls-68,.cls-69,.cls-7,.cls-70,.cls-71,.cls-72,.cls-73,.cls-74,.cls-75,.cls-76,.cls-77,.cls-78,.cls-79,.cls-8,.cls-80,.cls-9{fill-rule:evenodd;}.cls-3{fill:#fefefe;}.cls-4{fill:#fdfdfd;}.cls-5{fill:#fcfcfc;}.cls-6{fill:#fbfbfb;}.cls-7{fill:#fafafa;}.cls-8{fill:#f9f9f9;}.cls-9{fill:#f8f8f8;}.cls-10{fill:#f7f7f7;}.cls-11{fill:#f6f6f6;}.cls-12{fill:#f5f5f5;}.cls-13{fill:#f4f4f4;}.cls-14{fill:#f3f3f3;}.cls-15{fill:#f2f2f2;}.cls-16{fill:#f1f1f1;}.cls-17{fill:#f0f0f0;}.cls-18{fill:#efefef;}.cls-19{fill:#eee;}.cls-20{fill:#ededed;}.cls-21{fill:#ececec;}.cls-22{fill:#ebebeb;}.cls-23{fill:#eaeaea;}.cls-24{fill:#e9e9e9;}.cls-25{fill:#e8e8e8;}.cls-26{fill:#e7e7e7;}.cls-27{fill:#e6e6e6;}.cls-28{fill:#e5e5e5;}.cls-29{fill:#e4e4e4;}.cls-30{fill:#e3e3e3;}.cls-31{fill:#e2e2e2;}.cls-32{fill:#e1e1e1;}.cls-33{fill:#e0e0e0;}.cls-34{fill:#dfdfdf;}.cls-35{fill:#dedede;}.cls-36{fill:#ddd;}.cls-37{fill:#dcdcdc;}.cls-38{fill:#dbdbdb;}.cls-39{fill:#dadada;}.cls-40{fill:#d9d9d9;}.cls-41{fill:#d8d8d8;}.cls-42{fill:#d7d7d7;}.cls-43{fill:#d6d6d6;}.cls-44{fill:#d5d5d5;}.cls-45{fill:#d4d4d4;}.cls-46{fill:#d3d3d3;}.cls-47{fill:#d2d2d2;}.cls-48{fill:#d1d1d1;}.cls-49{fill:#d0d0d0;}.cls-50{fill:#cfcfcf;}.cls-51{fill:#cecece;}.cls-52{fill:#cdcdcd;}.cls-53{fill:#ccc;}.cls-54{fill:#cbcbcb;}.cls-55{fill:#cacaca;}.cls-56{fill:#c9c9c9;}.cls-57{fill:#c8c8c8;}.cls-58{fill:#c7c7c7;}.cls-59{fill:#c6c6c6;}.cls-60{fill:#c5c5c5;}.cls-61{fill:#c4c4c4;}.cls-62{fill:#c3c3c3;}.cls-63{fill:#c2c2c2;}.cls-64{fill:#c1c1c1;}.cls-65{fill:silver;}.cls-66{fill:#bfbfbf;}.cls-67{fill:#bebebe;}.cls-68{fill:#bdbdbd;}.cls-69{fill:#bcbcbc;}.cls-70{fill:#bbb;}.cls-71{fill:#bababa;}.cls-72{fill:#b9b9b9;}.cls-73{fill:#b8b8b8;}.cls-74{fill:#b7b7b7;}.cls-75{fill:#b6b6b6;}.cls-76{fill:#b5b5b5;}.cls-77{fill:#b4b4b4;}.cls-78{fill:#b3b3b3;}.cls-79{fill:#deded4;}.cls-80{fill:#0e51a7;}</style></defs><title>Asset 2</title><g id="Layer_2" data-name="Layer 2"><g id="_18" data-name="18"><g class="cls-1"><path class="cls-2" d="M64.25,132.84c-27.24,0-49.34-2.08-49.34-4.64s22.1-4.64,49.34-4.64,49.34,2.08,49.34,4.64-22.09,4.64-49.34,4.64Z"/><path class="cls-3" d="M64.25,132.78c-27,0-48.87-2.05-48.87-4.59s21.89-4.59,48.87-4.59,48.87,2.06,48.87,4.59-21.88,4.59-48.87,4.59Z"/><path class="cls-4" d="M64.26,132.73c-26.72,0-48.4-2-48.4-4.54s21.68-4.54,48.4-4.54,48.4,2,48.4,4.54-21.67,4.54-48.4,4.54Z"/><path class="cls-5" d="M64.26,132.67c-26.46,0-47.93-2-47.93-4.5s21.47-4.49,47.93-4.49,47.93,2,47.93,4.49-21.46,4.5-47.93,4.5Z"/><path class="cls-6" d="M64.27,132.62c-26.21,0-47.46-2-47.46-4.45s21.26-4.44,47.46-4.44,47.46,2,47.46,4.44-21.25,4.45-47.46,4.45Z"/><path class="cls-7" d="M64.28,132.56c-25.95,0-47-2-47-4.4s21-4.4,47-4.4,47,2,47,4.4-21,4.4-47,4.4Z"/><path class="cls-8" d="M64.28,132.51c-25.69,0-46.52-1.95-46.52-4.35s20.84-4.35,46.52-4.35,46.52,1.95,46.52,4.35S90,132.51,64.28,132.51Z"/><path class="cls-9" d="M64.29,132.45c-25.43,0-46.05-1.93-46.05-4.3s20.63-4.3,46.05-4.3,46.05,1.93,46.05,4.3-20.62,4.3-46.05,4.3Z"/><path class="cls-10" d="M64.3,132.4c-25.17,0-45.59-1.9-45.59-4.25s20.42-4.25,45.59-4.25,45.58,1.9,45.58,4.25S89.46,132.4,64.3,132.4Z"/><path class="cls-11" d="M64.3,132.34c-24.91,0-45.12-1.88-45.12-4.21s20.21-4.2,45.12-4.2,45.11,1.88,45.11,4.2-20.2,4.21-45.11,4.21Z"/><path class="cls-12" d="M64.31,132.29c-24.65,0-44.65-1.86-44.65-4.16s20-4.15,44.65-4.15S109,125.84,109,128.13s-20,4.16-44.64,4.16Z"/><path class="cls-13" d="M64.31,132.23c-24.39,0-44.18-1.84-44.18-4.11S39.92,124,64.31,124s44.17,1.84,44.17,4.11-19.78,4.11-44.17,4.11Z"/><path class="cls-14" d="M64.32,132.18c-24.13,0-43.71-1.82-43.71-4.06s19.58-4.06,43.71-4.06,43.7,1.82,43.7,4.06-19.57,4.06-43.7,4.06Z"/><path class="cls-15" d="M64.33,132.12c-23.87,0-43.24-1.8-43.24-4s19.37-4,43.24-4,43.23,1.8,43.23,4-19.36,4-43.23,4Z"/><path class="cls-16" d="M64.33,132.06c-23.61,0-42.77-1.77-42.77-4s19.16-4,42.77-4,42.76,1.78,42.76,4-19.15,4-42.76,4Z"/><path class="cls-17" d="M64.34,132C41,132,22,130.26,22,128.1s18.94-3.91,42.3-3.91,42.29,1.75,42.29,3.91S87.69,132,64.34,132Z"/><path class="cls-18" d="M64.34,132c-23.09,0-41.83-1.73-41.83-3.87s18.73-3.86,41.83-3.86,41.82,1.73,41.82,3.86S87.44,132,64.34,132Z"/><path class="cls-19" d="M64.35,131.9c-22.83,0-41.36-1.71-41.36-3.81s18.52-3.82,41.36-3.82,41.35,1.71,41.35,3.82-18.52,3.81-41.35,3.81Z"/><path class="cls-20" d="M64.36,131.84c-22.57,0-40.89-1.69-40.89-3.77s18.31-3.77,40.89-3.77,40.88,1.69,40.88,3.77-18.31,3.77-40.88,3.77Z"/><path class="cls-21" d="M64.36,131.79c-22.31,0-40.42-1.67-40.42-3.72s18.1-3.72,40.42-3.72,40.41,1.67,40.41,3.72-18.1,3.72-40.41,3.72Z"/><path class="cls-22" d="M64.37,131.73c-22.06,0-39.95-1.64-39.95-3.67s17.89-3.67,39.95-3.67,39.94,1.64,39.94,3.67-17.89,3.67-39.94,3.67Z"/><path class="cls-23" d="M64.38,131.68c-21.8,0-39.48-1.62-39.48-3.62s17.68-3.62,39.48-3.62,39.47,1.62,39.47,3.62-17.68,3.62-39.47,3.62Z"/><path class="cls-24" d="M64.38,131.62c-21.54,0-39-1.6-39-3.57s17.47-3.57,39-3.57,39,1.6,39,3.57-17.47,3.57-39,3.57Z"/><path class="cls-25" d="M64.39,131.57c-21.28,0-38.54-1.58-38.54-3.52s17.26-3.53,38.54-3.53,38.54,1.58,38.54,3.53-17.26,3.52-38.54,3.52Z"/><path class="cls-26" d="M64.39,131.51c-21,0-38.07-1.56-38.07-3.48s17.05-3.47,38.07-3.47,38.07,1.56,38.07,3.47-17,3.48-38.07,3.48Z"/><path class="cls-27" d="M64.4,131.46c-20.76,0-37.6-1.54-37.6-3.43s16.84-3.43,37.6-3.43S102,126.14,102,128s-16.84,3.43-37.6,3.43Z"/><path class="cls-28" d="M64.41,131.4c-20.5,0-37.13-1.51-37.13-3.38s16.63-3.38,37.13-3.38,37.13,1.51,37.13,3.38-16.63,3.38-37.13,3.38Z"/><path class="cls-29" d="M64.41,131.35c-20.24,0-36.66-1.49-36.66-3.33s16.42-3.33,36.66-3.33,36.66,1.49,36.66,3.33-16.42,3.33-36.66,3.33Z"/><path class="cls-30" d="M64.42,131.29c-20,0-36.19-1.47-36.19-3.28s16.21-3.28,36.19-3.28,36.19,1.47,36.19,3.28-16.21,3.28-36.19,3.28Z"/><path class="cls-31" d="M64.43,131.24c-19.72,0-35.72-1.45-35.72-3.23s16-3.23,35.72-3.23,35.72,1.45,35.72,3.23-16,3.23-35.72,3.23Z"/><path class="cls-32" d="M64.43,131.18c-19.46,0-35.25-1.43-35.25-3.19s15.79-3.18,35.25-3.18,35.25,1.43,35.25,3.18-15.78,3.19-35.25,3.19Z"/><path class="cls-33" d="M64.44,131.13c-19.2,0-34.78-1.4-34.78-3.14s15.58-3.14,34.78-3.14,34.78,1.4,34.78,3.14-15.57,3.14-34.78,3.14Z"/><path class="cls-34" d="M64.44,131.07c-18.94,0-34.31-1.38-34.31-3.09s15.37-3.09,34.31-3.09,34.31,1.38,34.31,3.09-15.36,3.09-34.31,3.09Z"/><path class="cls-35" d="M64.45,131c-18.68,0-33.84-1.36-33.84-3s15.16-3,33.84-3,33.84,1.36,33.84,3-15.15,3-33.84,3Z"/><path class="cls-36" d="M64.46,131c-18.43,0-33.37-1.34-33.37-3s14.95-3,33.37-3,33.37,1.34,33.37,3-14.94,3-33.37,3Z"/><path class="cls-37" d="M64.46,130.9c-18.17,0-32.9-1.32-32.9-2.94S46.3,125,64.46,125s32.9,1.32,32.9,2.94-14.73,2.94-32.9,2.94Z"/><path class="cls-38" d="M64.47,130.85C46.56,130.85,32,129.55,32,128s14.53-2.89,32.43-2.89S96.9,126.36,96.9,128s-14.52,2.89-32.43,2.89Z"/><path class="cls-39" d="M64.47,130.79c-17.65,0-32-1.27-32-2.85s14.32-2.85,32-2.85,32,1.28,32,2.85-14.31,2.85-32,2.85Z"/><path class="cls-40" d="M64.48,130.74c-17.39,0-31.49-1.25-31.49-2.8s14.11-2.8,31.49-2.8S96,126.4,96,127.94s-14.1,2.8-31.49,2.8Z"/><path class="cls-40" d="M64.49,130.68c-17.13,0-31-1.23-31-2.75s13.89-2.75,31-2.75,31,1.23,31,2.75-13.89,2.75-31,2.75Z"/><path class="cls-41" d="M64.49,130.63c-16.87,0-30.55-1.21-30.55-2.7s13.68-2.7,30.55-2.7S95,126.44,95,127.93s-13.68,2.7-30.55,2.7Z"/><path class="cls-42" d="M64.5,130.57c-16.61,0-30.08-1.19-30.08-2.65s13.47-2.65,30.08-2.65,30.08,1.19,30.08,2.65-13.47,2.65-30.08,2.65Z"/><path class="cls-43" d="M64.51,130.52c-16.35,0-29.61-1.16-29.61-2.6s13.26-2.6,29.61-2.6,29.61,1.17,29.61,2.6-13.26,2.6-29.61,2.6Z"/><path class="cls-44" d="M64.51,130.46c-16.09,0-29.14-1.14-29.14-2.55s13.05-2.56,29.14-2.56,29.14,1.14,29.14,2.56-13,2.55-29.14,2.55Z"/><path class="cls-45" d="M64.52,130.41c-15.83,0-28.67-1.12-28.67-2.51s12.84-2.51,28.67-2.51,28.67,1.12,28.67,2.51-12.84,2.51-28.67,2.51Z"/><path class="cls-46" d="M64.53,130.35c-15.57,0-28.2-1.1-28.2-2.46s12.63-2.46,28.2-2.46,28.2,1.1,28.2,2.46-12.63,2.46-28.2,2.46Z"/><path class="cls-47" d="M64.53,130.3c-15.31,0-27.73-1.08-27.73-2.41s12.42-2.41,27.73-2.41,27.73,1.08,27.73,2.41-12.42,2.41-27.73,2.41Z"/><path class="cls-48" d="M64.54,130.24c-15.05,0-27.27-1.06-27.27-2.36s12.21-2.36,27.27-2.36,27.26,1.06,27.26,2.36-12.21,2.36-27.26,2.36Z"/><path class="cls-49" d="M64.54,130.19c-14.79,0-26.79-1-26.79-2.31s12-2.31,26.79-2.31,26.79,1,26.79,2.31-12,2.31-26.79,2.31Z"/><path class="cls-50" d="M64.55,130.13c-14.54,0-26.33-1-26.33-2.26S50,125.6,64.55,125.6s26.32,1,26.32,2.27-11.79,2.26-26.32,2.26Z"/><path class="cls-51" d="M64.56,130.07c-14.28,0-25.86-1-25.86-2.21s11.58-2.21,25.86-2.21,25.85,1,25.85,2.21-11.58,2.21-25.85,2.21Z"/><path class="cls-52" d="M64.56,130c-14,0-25.39-1-25.39-2.17s11.37-2.17,25.39-2.17,25.38,1,25.38,2.17S78.58,130,64.56,130Z"/><path class="cls-53" d="M64.57,130c-13.76,0-24.92-.95-24.92-2.12s11.16-2.12,24.92-2.12,24.91.95,24.91,2.12S78.32,130,64.57,130Z"/><path class="cls-54" d="M64.57,129.91c-13.5,0-24.45-.93-24.45-2.07s10.95-2.07,24.45-2.07S89,126.7,89,127.84s-10.95,2.07-24.44,2.07Z"/><path class="cls-55" d="M64.58,129.85c-13.24,0-24-.9-24-2s10.74-2,24-2,24,.9,24,2-10.74,2-24,2Z"/><path class="cls-56" d="M64.59,129.8c-13,0-23.51-.88-23.51-2s10.53-2,23.51-2,23.5.88,23.5,2-10.53,2-23.5,2Z"/><path class="cls-57" d="M64.59,129.74c-12.72,0-23-.86-23-1.92s10.32-1.92,23-1.92,23,.86,23,1.92-10.32,1.92-23,1.92Z"/><path class="cls-58" d="M64.6,129.69c-12.46,0-22.57-.84-22.57-1.87s10.11-1.88,22.57-1.88,22.56.84,22.56,1.88-10.1,1.87-22.56,1.87Z"/><path class="cls-59" d="M64.61,129.63c-12.2,0-22.1-.82-22.1-1.83S52.4,126,64.61,126s22.09.82,22.09,1.83-9.89,1.83-22.09,1.83Z"/><path class="cls-60" d="M64.61,129.58c-11.94,0-21.63-.79-21.63-1.78S52.67,126,64.61,126s21.62.79,21.62,1.78-9.68,1.78-21.62,1.78Z"/><path class="cls-61" d="M64.62,129.52c-11.68,0-21.16-.78-21.16-1.73s9.48-1.73,21.16-1.73,21.15.78,21.15,1.73-9.47,1.73-21.15,1.73Z"/><path class="cls-62" d="M64.62,129.47c-11.42,0-20.69-.75-20.69-1.68s9.27-1.68,20.69-1.68,20.68.75,20.68,1.68-9.26,1.68-20.68,1.68Z"/><path class="cls-63" d="M64.63,129.41c-11.16,0-20.22-.73-20.22-1.63s9.06-1.63,20.22-1.63,20.21.73,20.21,1.63-9.05,1.63-20.21,1.63Z"/><path class="cls-64" d="M64.64,129.36c-10.9,0-19.75-.71-19.75-1.58s8.84-1.59,19.75-1.59,19.74.71,19.74,1.59-8.84,1.58-19.74,1.58Z"/><path class="cls-65" d="M64.64,129.3c-10.64,0-19.28-.69-19.28-1.54s8.63-1.54,19.28-1.54,19.27.69,19.27,1.54-8.63,1.54-19.27,1.54Z"/><path class="cls-66" d="M64.65,129.24c-10.38,0-18.81-.67-18.81-1.49s8.42-1.49,18.81-1.49,18.8.67,18.8,1.49-8.42,1.49-18.8,1.49Z"/><path class="cls-67" d="M64.65,129.19c-10.12,0-18.34-.64-18.34-1.44s8.21-1.44,18.34-1.44S83,127,83,127.75s-8.21,1.44-18.33,1.44Z"/><path class="cls-68" d="M64.66,129.14c-9.87,0-17.87-.62-17.87-1.39s8-1.39,17.87-1.39,17.86.62,17.86,1.39-8,1.39-17.86,1.39Z"/><path class="cls-69" d="M64.67,129.08c-9.61,0-17.4-.6-17.4-1.34s7.79-1.34,17.4-1.34,17.39.6,17.39,1.34-7.79,1.34-17.39,1.34Z"/><path class="cls-70" d="M64.67,129c-9.35,0-16.93-.58-16.93-1.29s7.58-1.29,16.93-1.29,16.92.58,16.92,1.29S74,129,64.67,129Z"/><path class="cls-71" d="M64.68,129c-9.09,0-16.46-.56-16.46-1.24s7.37-1.25,16.46-1.25,16.46.56,16.46,1.25S73.76,129,64.68,129Z"/><path class="cls-72" d="M64.69,128.91c-8.83,0-16-.54-16-1.2s7.16-1.2,16-1.2,16,.54,16,1.2-7.16,1.2-16,1.2Z"/><path class="cls-73" d="M64.69,128.86c-8.57,0-15.52-.51-15.52-1.15s7-1.15,15.52-1.15,15.52.51,15.52,1.15-7,1.15-15.52,1.15Z"/><path class="cls-74" d="M64.7,128.8c-8.31,0-15.05-.49-15.05-1.1s6.74-1.1,15.05-1.1,15,.49,15,1.1-6.74,1.1-15,1.1Z"/><path class="cls-75" d="M64.7,128.75c-8.05,0-14.58-.47-14.58-1.05s6.53-1.05,14.58-1.05,14.58.47,14.58,1.05-6.53,1.05-14.58,1.05Z"/><path class="cls-76" d="M64.71,128.69c-7.79,0-14.11-.45-14.11-1s6.32-1,14.11-1,14.11.45,14.11,1-6.32,1-14.11,1Z"/><path class="cls-77" d="M64.72,128.64c-7.53,0-13.64-.43-13.64-1s6.11-1,13.64-1,13.64.43,13.64,1-6.11,1-13.64,1Z"/><path class="cls-78" d="M64.72,128.58c-7.27,0-13.17-.41-13.17-.9s5.9-.91,13.17-.91,13.17.4,13.17.91-5.9.9-13.17.9Z"/></g><path class="cls-79" d="M63.64,0A63.64,63.64,0,1,1,0,63.64,63.64,63.64,0,0,1,63.64,0Z"/><path class="cls-80" d="M43.71,31.42H61l-.77.93L44.09,50.13l-.9-.28V31.42ZM31.63,86.36h7.85V66.28H31.44L63.64,32.62,95.87,66.28H87.82V86.36h6.25v9.49H31.63Zm32-22.5a2.77,2.77,0,1,1,2.65-2.77,2.72,2.72,0,0,1-2.65,2.77ZM66.2,83c0,1.42-.56,2.65-2.55,2.65S61.11,84.39,61.11,83V68.29c0-1.41.56-2.65,2.54-2.65s2.55,1.24,2.55,2.65Z"/></g></g></svg>